PathFileType	4	(X/Y/Z)	45_1_26_p0_0-170_filt_butterworth.trc
DataRate	CameraRate	NumFrames	NumMarkers	Units	OrigDataRate	OrigDataStartFrame	OrigNumFrames
60.0	60.0	6	27	m	60.0	106	170
Frame#	Time	RHip			RKnee			RAnkle			RBigToe			RSmallToe			RHeel			LHip			LKnee			LAnkle			LBigToe			LSmallToe			LHeel			Neck			Head			Nose			RShoulder			RElbow			RWrist			RThumb			RIndex			RPinky			LShoulder			LElbow			LWrist			LThumb			LIndex			LPinky			
		X1	Y1	Z1	X2	Y2	Z2	X3	Y3	Z3	X4	Y4	Z4	X5	Y5	Z5	X6	Y6	Z6	X7	Y7	Z7	X8	Y8	Z8	X9	Y9	Z9	X10	Y10	Z10	X11	Y11	Z11	X12	Y12	Z12	X13	Y13	Z13	X14	Y14	Z14	X15	Y15	Z15	X16	Y16	Z16	X17	Y17	Z17	X18	Y18	Z18	X19	Y19	Z19	X20	Y20	Z20	X21	Y21	Z21	X22	Y22	Z22	X23	Y23	Z23	X24	Y24	Z24	X25	Y25	Z25	X26	Y26	Z26	X27	Y27	Z27	
106	1.7666666666666666	0.5273614795432295	0.39482846016795964	0.8059521942120607	0.5628443586304571	0.6018528960816728	1.251644255510346	0.6366644813277501	0.7890394520248102	1.668637174301583	0.6116311934137348	0.6762615289628544	1.7513473568996358	0.6770697174259755	0.6561284342240844	1.7381023279130061	0.6285028133969336	0.8283017122689634	1.700743592594329	0.30793962396417246	0.45736240235946635	0.8374742660288069	0.3834424531641255	0.635163517572362	1.278696249764126	0.4364926296504081	0.8337805303056007	1.714278495314117	0.4551381390135496	0.6501468054199622	1.7619653478785693	0.40329107450927826	0.6747691413884159	1.7626633814105315	0.4509502432550633	0.9236366454143337	1.75528653445657	0.3000606725157722	0.17117791565095636	0.337861005694916	0.19017381517147264	0.025106180147542345	0.1371782843519984	0.23796903702364708	0.023097841518700642	0.2964985085337866	0.4756122483691567	0.15386605005281825	0.3527477397227671	0.5252292526470054	0.051765885870999846	0.5890062933364002	0.3460091657894805	0.05484020187724012	0.4494584788617365	0.31676222647161145	0.034458847233998655	0.3582682505372957	0.2935036496369745	0.002963438090966076	0.3685293807894846	0.2974409461470803	-0.024302374729029463	0.41514524611064585	0.18155409781211576	0.2619104624985204	0.4280872758164073	0.14903555088722717	0.33474429811409995	0.6933227051002492	0.07598854922656113	0.3388401396264748	0.9321943107371855	0.07384073106024297	0.2484658031978795	1.0316705087953724	0.03684224031744819	0.2754131930952036	1.056237911178404	0.05417806506646082	0.3504230870792999	1.0549980918108188
107	1.7833333333333334	0.5269596745031417	0.3941833427680502	0.8066422712173558	0.5606097987235357	0.5962070574844146	1.2511408417978438	0.6338886262883987	0.7833076545909387	1.6690587299282063	0.610968622314856	0.6744134472450641	1.7502101136481945	0.67710288747704	0.650976846947466	1.7373211493610787	0.6271494226180836	0.8287073768242386	1.704086809604548	0.30638652181138354	0.44312626356249485	0.8368292767569236	0.38236316614627786	0.6308308578448586	1.2782446632387092	0.43501221569052495	0.8342847858061971	1.716034908237789	0.4534649036938849	0.6453610121135835	1.759861917835035	0.40482509563566565	0.6692603707633639	1.761281195076887	0.45205354935284003	0.930126037444482	1.757486117136172	0.3025339655834841	0.17422234805214182	0.3365760413679159	0.19492125130603347	0.025713400135973206	0.1368501714516232	0.2425179348481435	0.02290606640044308	0.2957321541945859	0.479647170237926	0.1571758728802975	0.35311922795688955	0.533279738330643	0.060974437497197206	0.5862431407306093	0.34998662041969664	0.058518163019880796	0.45085743280651286	0.31752074486359494	0.03778421725837107	0.3596280567725479	0.2938888181426029	0.008773300863825247	0.3675379448172407	0.29709182495879644	-0.019976277279577553	0.4149144199950637	0.1811891113165116	0.2611101083698065	0.427725582251134	0.1446444001596109	0.33555974292812424	0.6926385096607913	0.06878078722692875	0.339570718536268	0.9279467434126109	0.05664241406482978	0.23741411647077232	1.0226854102669303	0.03151637203551312	0.26604175044004463	1.0544218027946792	0.04068238657059922	0.33221529052115856	1.0551851469453613
108	1.8	0.5257623803025966	0.39341834357892214	0.8069838783092508	0.5577804680395544	0.5890526051492494	1.250284352796994	0.630434509649112	0.7759156432893646	1.668654086050848	0.6087491439454189	0.6633810746073777	1.747610301603924	0.6763257020012639	0.6478428175143216	1.7363498046185644	0.627988053693573	0.8300961223146338	1.707629709626387	0.30529836367458263	0.4338259470102279	0.8359422647640395	0.38209396637119475	0.6246611545881954	1.2766891452783509	0.43313727115493283	0.8343991707633158	1.7174719860100804	0.44956129780138926	0.6373502046117051	1.7565321530161693	0.4058732513680722	0.6646067228701192	1.7600975423676386	0.4531922719023358	0.9346414086146757	1.7607514698947864	0.3056655408933267	0.177166280268029	0.33551507099865324	0.20095471562589456	0.028024506517475917	0.13625321131818527	0.24749317712372076	0.028953072057529537	0.29376013237689635	0.4827304356401646	0.15924973201115916	0.35334077749564635	0.541081349741915	0.0782838859574273	0.5821797216864422	0.3540209942564797	0.059220369707238124	0.4520805630059914	0.31977573900309214	0.0397227527839502	0.3632298148266987	0.29589368440434854	0.012266610781938171	0.36738630492730456	0.2971914350039643	-0.01624805933283834	0.416116205661071	0.18082365427679814	0.2582429822541891	0.42758130938550937	0.1411302364660704	0.33568785308456395	0.6903571148353008	0.0633091280297455	0.3270195514685079	0.9211350915682697	0.040844014488933086	0.23100544583674726	1.009967307579158	0.02520116585743941	0.25392364935295697	1.0506251152305166	0.030198354175085325	0.31639767201043045	1.054251330613363
109	1.8166666666666669	0.5241318462305724	0.3927386425608245	0.8070331141366014	0.5548960831276047	0.5813329743384013	1.2491231442456063	0.62726783525162	0.7680020721375548	1.6675418316918895	0.6053302336251803	0.6450588977893007	1.7440273291799906	0.675232044123217	0.6470370968208629	1.7354087278340997	0.6299434198374896	0.8324837476107927	1.7109676899264836	0.3049431550299608	0.43052779707449973	0.8350980401240353	0.38211052695345854	0.6200803570329146	1.2752533359652458	0.4317332988357568	0.8342664590835682	1.718137450993831	0.44570457219210835	0.6282613144348637	1.7525560694750895	0.4061116628309934	0.6621328283934335	1.7594924055235135	0.45414881378383204	0.9373073761008183	1.7636806159278542	0.309799642214698	0.17983785710380093	0.3340665516107436	0.20828270909555116	0.03239814882265028	0.13442913300855056	0.25215853328839366	0.041139951021487	0.28956553744583413	0.4849382632882312	0.16030981628294566	0.35338479392563843	0.5491775185682648	0.09852840254302758	0.5777113985970769	0.35919377832159305	0.05601273809912176	0.45347095163808304	0.3244680150248421	0.040741429023792554	0.3675044756126493	0.299824451980789	0.013550924666104231	0.36889260093186993	0.2989129878420704	-0.01288284112460964	0.41681185530477816	0.18098033738189814	0.252757096929778	0.427793082280659	0.1383300115657421	0.3342190033553387	0.6867007223879601	0.05792921099705928	0.3034059567032813	0.9127783721386392	0.028583356557966837	0.22239476154562976	0.9967283437777108	0.014362869963186184	0.2378670832705178	1.0430870148295317	0.02277296291583587	0.3051490689577597	1.0499780052073742
110	1.8333333333333333	0.5228825712891523	0.3919009925227126	0.8067097259580056	0.552467812706155	0.575070295175336	1.2482106964670048	0.6252055839248638	0.7616654105265651	1.6664762455403788	0.6023071861929956	0.628009866692805	1.7410765434690239	0.6745915214299046	0.645966944552911	1.7341811689949413	0.6314224189325401	0.8363287147058633	1.7142914904217066	0.3052634789968183	0.43030587199012116	0.8342507259069853	0.3814937049529018	0.6196882666550223	1.2752899478427793	0.43116555806456847	0.8342011104568177	1.7182215799075047	0.44429418493723594	0.6215585868493294	1.7495983627003864	0.40583335439379453	0.661338735957331	1.7593126677174074	0.4547435615809807	0.9388668361169199	1.7651380386665745	0.31430624249838296	0.18153800449094817	0.3321490673864642	0.21613129978860382	0.0376138926626331	0.13151681336519166	0.2557546835638595	0.053795288516192086	0.2837476834788303	0.4865347477858755	0.1606806036656361	0.3531044080345951	0.5576207975526214	0.11388761542052947	0.5741899418732717	0.36648671707822933	0.04823385256743682	0.45650134546136834	0.3310353912794527	0.041813171408013945	0.37080048758266154	0.3045975311281963	0.015250804858065882	0.371784154126674	0.302443690902795	-0.0072638853068922385	0.41645912196279083	0.18221841259403973	0.24540008607149538	0.42849229538151445	0.13544436171604968	0.3309216319903244	0.6823185315941644	0.05211409959485691	0.27691437301115474	0.9041642825219726	0.02021268686474016	0.206656204947384	0.9867522792476213	-0.0018517332493942014	0.22093633926010078	1.0303239231918384	0.016179774617207956	0.2956013051033122	1.0396590443768317
111	1.85	0.5225883365637891	0.39019014392229856	0.8061694286537032	0.5504648918312968	0.5713866001667769	1.2480433184994209	0.6243664912425299	0.7581007743375289	1.6662546567797252	0.6008736675151757	0.6180768666195395	1.739898176175265	0.6742178093119051	0.6417343080555447	1.7321565809548742	0.6320893247219673	0.8422466584555881	1.7176433930674386	0.3057518125765273	0.43050725071326373	0.833292433933283	0.3796969097948798	0.6235287918338287	1.276885948435532	0.431126545252139	0.8342779785501258	1.7181052187161363	0.44513860607048883	0.618927854834505	1.7485326154248755	0.40540392000382774	0.6610997019375524	1.7590288777110707	0.45510032766844777	0.9405079895800431	1.765113160570868	0.31819656172860816	0.1823427507816484	0.3301966582983715	0.22313349883238687	0.04155561939474586	0.12819472538905435	0.2581334525601016	0.06227993801390591	0.278040006984243	0.48788077392576956	0.16099303583936847	0.3523559726798542	0.5668061741181445	0.12235042175884403	0.5720979754908847	0.3758320500525123	0.03756199218376986	0.46231020139162887	0.3375034509367945	0.04429209275303246	0.37245977807959546	0.3090189036057305	0.020177478455897423	0.3747581891960374	0.30738291503483395	0.0023554898395293893	0.41694834062464653	0.1846164243618224	0.23735081565784472	0.42963100931687276	0.1323901925782726	0.3276084585102772	0.6779466433993806	0.04633476950605166	0.2550277635949709	0.896573972308057	0.014652960579040428	0.18504950210677867	0.9813760082851466	-0.019272114680156785	0.2064218077169815	1.0135750919986501	0.008057859968206156	0.2856675359030556	1.022737245030983
